<svg xmlns="http://www.w3.org/2000/svg" xmlns:xlink="http://www.w3.org/1999/xlink" width="500" height="300" viewBox="0 0 500 300">
  <defs>
    <style>
      .cls-1 {
        clip-path: url(#clip-Web_1280_1);
      }

      .cls-10, .cls-2, .cls-5 {
        fill: #fff;
      }

      .cls-2, .cls-3 {
        stroke: #707070;
      }

      .cls-3 {
        fill: #2bba47;
        opacity: 0.312;
      }

      .cls-4 {
        fill: #188e1c;
        stroke: #69634e;
        stroke-width: 5px;
      }

      .cls-6 {
        fill: #070606;
        font-size: 20px;
        font-family: HelveticaNeue, Helvetica Neue;
      }

      .cls-7, .cls-9 {
        stroke: none;
      }

      .cls-8 {
        fill: none
      }

      .cls-9 {
        fill: #707070;
      }

      .cls-10 {
        fill: url(#Gradient1);
      }
    </style>
    <linearGradient id="Gradient1" x1="0%" y1="0%" x2="0%" y2="100%">
      <stop offset="0%" stop-color="yellow" id="stop1"/>
      <stop offset="100%" stop-color="red" id="stop2"/>
     </linearGradient>
    <clipPath id="clip-Web_1280_1">
      <rect width="500" height="300"/>
    </clipPath>
  </defs>
  <g id="Web_1280_1" data-name="Web 1280 – 1" class="cls-1">
    <rect class="cls-8" width="500" height="300"/>
    <g id="Gauge" class="cls-2" transform="translate(412 21)">
      <rect class="cls-10" width="46" height="240"/>
      <rect class="cls-10" x="0.5" y="0.5" width="45" height="239" fill="url(#Gradient1)"/>
    </g>
    <g id="TableCase" class="cls-3" transform="translate(97 159)">
      <rect class="cls-7" width="242" height="102"/>
      <rect class="cls-8" x="0.5" y="0.5" width="241" height="101"/>
    </g>
    <g id="Table" class="cls-4" transform="translate(97 93)">
      <ellipse class="cls-7" cx="121" cy="75" rx="121" ry="75"/>
      <ellipse class="cls-8" cx="121" cy="75" rx="118.5" ry="72.5"/>
    </g>
    <g id="Patron6" class="cls-5" transform="translate(343.313 92.646)">
      <path class="cls-7" d="M 49.2840690612793 42.3281364440918 L 0.8721908330917358 42.3281364440918 L 25.07811546325684 0.9895059466362 L 49.2840690612793 42.3281364440918 Z"/>
      <path class="cls-9" d="M 25.07811546325684 1.979015350341797 L 1.744365692138672 41.8281364440918 L 48.41187286376953 41.8281364440918 L 25.07811546325684 1.979015350341797 M 25.07811546325684 -3.814697265625e-06 L 50.15624618530273 42.8281364440918 L -3.814697265625e-06 42.8281364440918 L 25.07811546325684 -3.814697265625e-06 Z"/>
    </g>
    <g id="Patron5" class="cls-5" transform="translate(293.313 49.646)">
      <path class="cls-7" d="M 49.2840690612793 42.3281364440918 L 0.8721908330917358 42.3281364440918 L 25.07811546325684 0.9895059466362 L 49.2840690612793 42.3281364440918 Z"/>
      <path class="cls-9" d="M 25.07811546325684 1.979015350341797 L 1.744365692138672 41.8281364440918 L 48.41187286376953 41.8281364440918 L 25.07811546325684 1.979015350341797 M 25.07811546325684 -3.814697265625e-06 L 50.15624618530273 42.8281364440918 L -3.814697265625e-06 42.8281364440918 L 25.07811546325684 -3.814697265625e-06 Z"/>
    </g>
    <g id="Patron4" class="cls-5" transform="translate(226.313 35.646)">
      <path class="cls-7" d="M 49.2840690612793 42.3281364440918 L 0.8721908330917358 42.3281364440918 L 25.07811546325684 0.9895059466362 L 49.2840690612793 42.3281364440918 Z"/>
      <path class="cls-9" d="M 25.07811546325684 1.979015350341797 L 1.744365692138672 41.8281364440918 L 48.41187286376953 41.8281364440918 L 25.07811546325684 1.979015350341797 M 25.07811546325684 -3.814697265625e-06 L 50.15624618530273 42.8281364440918 L -3.814697265625e-06 42.8281364440918 L 25.07811546325684 -3.814697265625e-06 Z"/>
    </g>
    <g id="Patron3" class="cls-5" transform="translate(160.313 35.646)">
      <path class="cls-7" d="M 49.2840690612793 42.3281364440918 L 0.8721908330917358 42.3281364440918 L 25.07811546325684 0.9895059466362 L 49.2840690612793 42.3281364440918 Z"/>
      <path class="cls-9" d="M 25.07811546325684 1.979015350341797 L 1.744365692138672 41.8281364440918 L 48.41187286376953 41.8281364440918 L 25.07811546325684 1.979015350341797 M 25.07811546325684 -3.814697265625e-06 L 50.15624618530273 42.8281364440918 L -3.814697265625e-06 42.8281364440918 L 25.07811546325684 -3.814697265625e-06 Z"/>
    </g>
    <g id="Patron2" class="cls-5" transform="translate(97.313 51.646)">
      <path class="cls-7" d="M 49.2840690612793 42.3281364440918 L 0.8721908330917358 42.3281364440918 L 25.07811546325684 0.9895059466362 L 49.2840690612793 42.3281364440918 Z"/>
      <path class="cls-9" d="M 25.07811546325684 1.979015350341797 L 1.744365692138672 41.8281364440918 L 48.41187286376953 41.8281364440918 L 25.07811546325684 1.979015350341797 M 25.07811546325684 -3.814697265625e-06 L 50.15624618530273 42.8281364440918 L -3.814697265625e-06 42.8281364440918 L 25.07811546325684 -3.814697265625e-06 Z"/>
    </g>
    <g id="Patron1" class="cls-5" transform="translate(42.313 92.646)">
      <path class="cls-7" d="M 49.2840690612793 42.3281364440918 L 0.8721908330917358 42.3281364440918 L 25.07811546325684 0.9895059466362 L 49.2840690612793 42.3281364440918 Z"/>
      <path class="cls-9" d="M 25.07811546325684 1.979015350341797 L 1.744365692138672 41.8281364440918 L 48.41187286376953 41.8281364440918 L 25.07811546325684 1.979015350341797 M 25.07811546325684 -3.814697265625e-06 L 50.15624618530273 42.8281364440918 L -3.814697265625e-06 42.8281364440918 L 25.07811546325684 -3.814697265625e-06 Z"/>
    </g>
    <text id="Table_1" data-name="Table 1" class="cls-6" transform="translate(186 224)"><tspan x="0" y="0">Table 1</tspan></text>
  </g>
</svg>
