<svg xmlns="http://www.w3.org/2000/svg" xmlns:xlink="http://www.w3.org/1999/xlink" width="500" height="300" viewBox="0 0 500 300"><defs><clipPath id="b"><rect width="500" height="300"/></clipPath></defs><g id="a" clip-path="url(#b)"><rect width="500" height="300" fill="#fff"/><g transform="translate(97 159)" fill="#2bba47" stroke="#707070" stroke-width="1" opacity="0.312"><rect width="242" height="102" stroke="none"/><rect x="0.5" y="0.5" width="241" height="101" fill="none"/></g><g transform="translate(97 93)" fill="#188e1c" stroke="#69634e" stroke-width="5"><ellipse cx="121" cy="75" rx="121" ry="75" stroke="none"/><ellipse cx="121" cy="75" rx="118.5" ry="72.5" fill="none"/></g><g transform="translate(42.313 92.646)"><g fill="#fff">
<path id="a" d="M 49.2840690612793 42.3281364440918 L 0.8721908330917358 42.3281364440918 L 25.07811546325684 0.9895059466362 L 49.2840690612793 42.3281364440918 Z" stroke="none"/>
<path id="b" d="M 25.07811546325684 1.979015350341797 L 1.744365692138672 41.8281364440918 L 48.41187286376953 41.8281364440918 L 25.07811546325684 1.979015350341797 M 25.07811546325684 -3.814697265625e-06 L 50.15624618530273 42.8281364440918 L -3.814697265625e-06 42.8281364440918 L 25.07811546325684 -3.814697265625e-06 Z" stroke="none" fill="#707070"/></g></g><text transform="translate(186 224)" fill="#070606" font-size="20" font-family="HelveticaNeue, Helvetica Neue"><tspan x="0" y="0">Table 1</tspan></text><g transform="translate(343.313 92.646)" fill="#fff">
<path id="c" d="M 49.2840690612793 42.3281364440918 L 0.8721908330917358 42.3281364440918 L 25.07811546325684 0.9895059466362 L 49.2840690612793 42.3281364440918 Z" stroke="none"/>
<path id="d" d="M 25.07811546325684 1.979015350341797 L 1.744365692138672 41.8281364440918 L 48.41187286376953 41.8281364440918 L 25.07811546325684 1.979015350341797 M 25.07811546325684 -3.814697265625e-06 L 50.15624618530273 42.8281364440918 L -3.814697265625e-06 42.8281364440918 L 25.07811546325684 -3.814697265625e-06 Z" stroke="none" fill="#707070"/></g><g transform="translate(97.313 50.646)"><g fill="#fff">
<path id="patron5" d="M 49.2840690612793 42.3281364440918 L 0.8721908330917358 42.3281364440918 L 25.07811546325684 0.9895059466362 L 49.2840690612793 42.3281364440918 Z" stroke="none"/>
<path id="patron4" d="M 25.07811546325684 1.979015350341797 L 1.744365692138672 41.8281364440918 L 48.41187286376953 41.8281364440918 L 25.07811546325684 1.979015350341797 M 25.07811546325684 -3.814697265625e-06 L 50.15624618530273 42.8281364440918 L -3.814697265625e-06 42.8281364440918 L 25.07811546325684 -3.814697265625e-06 Z" stroke="none" fill="#707070"/></g></g><g transform="translate(293.313 49.646)" fill="#fff">
<path id="patron3" d="M 49.2840690612793 42.3281364440918 L 0.8721908330917358 42.3281364440918 L 25.07811546325684 0.9895059466362 L 49.2840690612793 42.3281364440918 Z" stroke="none"/>
<path id="patron2" d="M 25.07811546325684 1.979015350341797 L 1.744365692138672 41.8281364440918 L 48.41187286376953 41.8281364440918 L 25.07811546325684 1.979015350341797 M 25.07811546325684 -3.814697265625e-06 L 50.15624618530273 42.8281364440918 L -3.814697265625e-06 42.8281364440918 L 25.07811546325684 -3.814697265625e-06 Z" stroke="none" fill="#707070"/></g><g transform="translate(160.313 35.646)" fill="#fff">
<path id="patron1" d="M 49.2840690612793 42.3281364440918 L 0.8721908330917358 42.3281364440918 L 25.07811546325684 0.9895059466362 L 49.2840690612793 42.3281364440918 Z" stroke="none"/>
<path d="M 25.07811546325684 1.979015350341797 L 1.744365692138672 41.8281364440918 L 48.41187286376953 41.8281364440918 L 25.07811546325684 1.979015350341797 M 25.07811546325684 -3.814697265625e-06 L 50.15624618530273 42.8281364440918 L -3.814697265625e-06 42.8281364440918 L 25.07811546325684 -3.814697265625e-06 Z" stroke="none" fill="#707070"/></g><g transform="translate(226.313 35.646)" fill="#fff">
<path d="M 49.2840690612793 42.3281364440918 L 0.8721908330917358 42.3281364440918 L 25.07811546325684 0.9895059466362 L 49.2840690612793 42.3281364440918 Z" stroke="none"/>
<path d="M 25.07811546325684 1.979015350341797 L 1.744365692138672 41.8281364440918 L 48.41187286376953 41.8281364440918 L 25.07811546325684 1.979015350341797 M 25.07811546325684 -3.814697265625e-06 L 50.15624618530273 42.8281364440918 L -3.814697265625e-06 42.8281364440918 L 25.07811546325684 -3.814697265625e-06 Z" stroke="none" fill="#707070"/></g><g transform="translate(412 21)" fill="#fff" stroke="#707070" stroke-width="1"><rect width="46" height="240" stroke="none"/><rect x="0.5" y="0.5" width="45" height="239" fill="none"/></g></g></svg>
