<svg xmlns="http://www.w3.org/2000/svg" xmlns:xlink="http://www.w3.org/1999/xlink" width="500" height="300" viewBox="0 0 500 300"><defs><style>.a{clip-path:url(#b);}.b{fill:#2bba47;opacity:0.312;}.b,.f{stroke:#707070;}.c{fill:#188e1c;stroke:#69634e;stroke-width:5px;}.d,.f,.j{fill:#fff;}.e{fill:#070606;font-size:20px;font-family:HelveticaNeue, Helvetica Neue;}.g,.i{stroke:none;}.h{fill:none;}.i{fill:#707070;}</style><clipPath id="b"><rect width="500" height="300"/></clipPath></defs><g id="a" class="a"><rect class="j" width="500" height="300"/><g class="b" transform="translate(97 159)"><rect class="g" width="242" height="102"/><rect class="h" x="0.5" y="0.5" width="241" height="101"/></g><g class="c" transform="translate(97 93)"><ellipse class="g" cx="121" cy="75" rx="121" ry="75"/><ellipse class="h" cx="121" cy="75" rx="118.5" ry="72.5"/></g><g class="d" transform="translate(42.313 92.646)"><path class="g" d="M 49.2840690612793 42.3281364440918 L 0.8721908330917358 42.3281364440918 L 25.07811546325684 0.9895059466362 L 49.2840690612793 42.3281364440918 Z"/><path class="i" d="M 25.07811546325684 1.979015350341797 L 1.744365692138672 41.8281364440918 L 48.41187286376953 41.8281364440918 L 25.07811546325684 1.979015350341797 M 25.07811546325684 -3.814697265625e-06 L 50.15624618530273 42.8281364440918 L -3.814697265625e-06 42.8281364440918 L 25.07811546325684 -3.814697265625e-06 Z"/></g><text class="e" transform="translate(186 224)"><tspan x="0" y="0">Table 1</tspan></text><g class="d" transform="translate(343.313 92.646)"><path class="g" d="M 49.2840690612793 42.3281364440918 L 0.8721908330917358 42.3281364440918 L 25.07811546325684 0.9895059466362 L 49.2840690612793 42.3281364440918 Z"/><path class="i" d="M 25.07811546325684 1.979015350341797 L 1.744365692138672 41.8281364440918 L 48.41187286376953 41.8281364440918 L 25.07811546325684 1.979015350341797 M 25.07811546325684 -3.814697265625e-06 L 50.15624618530273 42.8281364440918 L -3.814697265625e-06 42.8281364440918 L 25.07811546325684 -3.814697265625e-06 Z"/></g><g class="d" transform="translate(97.313 50.646)"><path class="g" d="M 49.2840690612793 42.3281364440918 L 0.8721908330917358 42.3281364440918 L 25.07811546325684 0.9895059466362 L 49.2840690612793 42.3281364440918 Z"/><path class="i" d="M 25.07811546325684 1.979015350341797 L 1.744365692138672 41.8281364440918 L 48.41187286376953 41.8281364440918 L 25.07811546325684 1.979015350341797 M 25.07811546325684 -3.814697265625e-06 L 50.15624618530273 42.8281364440918 L -3.814697265625e-06 42.8281364440918 L 25.07811546325684 -3.814697265625e-06 Z"/></g><g class="d" transform="translate(293.313 49.646)"><path class="g" d="M 49.2840690612793 42.3281364440918 L 0.8721908330917358 42.3281364440918 L 25.07811546325684 0.9895059466362 L 49.2840690612793 42.3281364440918 Z"/><path class="i" d="M 25.07811546325684 1.979015350341797 L 1.744365692138672 41.8281364440918 L 48.41187286376953 41.8281364440918 L 25.07811546325684 1.979015350341797 M 25.07811546325684 -3.814697265625e-06 L 50.15624618530273 42.8281364440918 L -3.814697265625e-06 42.8281364440918 L 25.07811546325684 -3.814697265625e-06 Z"/></g><g class="d" transform="translate(160.313 34.646)"><path class="g" d="M 49.2840690612793 42.3281364440918 L 0.8721908330917358 42.3281364440918 L 25.07811546325684 0.9895059466362 L 49.2840690612793 42.3281364440918 Z"/><path class="i" d="M 25.07811546325684 1.979015350341797 L 1.744365692138672 41.8281364440918 L 48.41187286376953 41.8281364440918 L 25.07811546325684 1.979015350341797 M 25.07811546325684 -3.814697265625e-06 L 50.15624618530273 42.8281364440918 L -3.814697265625e-06 42.8281364440918 L 25.07811546325684 -3.814697265625e-06 Z"/></g><g class="d" transform="translate(226.313 35.646)"><path class="g" d="M 49.2840690612793 42.3281364440918 L 0.8721908330917358 42.3281364440918 L 25.07811546325684 0.9895059466362 L 49.2840690612793 42.3281364440918 Z"/><path class="i" d="M 25.07811546325684 1.979015350341797 L 1.744365692138672 41.8281364440918 L 48.41187286376953 41.8281364440918 L 25.07811546325684 1.979015350341797 M 25.07811546325684 -3.814697265625e-06 L 50.15624618530273 42.8281364440918 L -3.814697265625e-06 42.8281364440918 L 25.07811546325684 -3.814697265625e-06 Z"/></g><g class="f" transform="translate(412 21)"><rect class="g" width="46" height="240"/><rect class="h" x="0.5" y="0.5" width="45" height="239"/></g></g></svg>